<?xml version="1.0" encoding="utf-8"?>
<!-- Generator: Adobe Illustrator 18.1.1, SVG Export Plug-In . SVG Version: 6.00 Build 0)  -->
<!DOCTYPE svg PUBLIC "-//W3C//DTD SVG 1.1//EN" "http://www.w3.org/Graphics/SVG/1.1/DTD/svg11.dtd">
<svg version="1.1" id="Layer_1" xmlns="http://www.w3.org/2000/svg" xmlns:xlink="http://www.w3.org/1999/xlink" x="0px" y="0px"
	 width="113.9px" height="151.8px" viewBox="0 0 113.9 151.8" enable-background="new 0 0 113.9 151.8" xml:space="preserve" style="fill: #64DD17;">
<g>
	<path d="M87.8,98.8l-5.9,9c-2.1,3.3-5.7,5.2-9.6,5.2c-1.4,0-2.8-0.3-4.1-0.8l-10-3.9c-0.4-0.2-0.8-0.2-1.2-0.2s-0.8,0.1-1.2,0.2
		l-10,3.9c-1.3,0.5-2.7,0.8-4.1,0.8c-3.9,0-7.5-2-9.6-5.2l-6-9c-0.2-0.4-0.1-0.7-1.1-0.9v48c0,2.4,1.6,4.6,3.8,5.5
		c0.7,0.3,1.5,0.5,2.3,0.5c1.5,0,3-0.6,4.2-1.8L57,127.5l21.8,22.6c1.1,1.1,2.6,1.7,4.1,1.7c0.7,0,1.6-0.1,2.3-0.4
		c2.2-0.9,3.7-3.1,3.7-5.5V97.8C87.9,98.1,88,98.4,87.8,98.8z"/>
	<path d="M112.2,49.9l-6.8-8.3c-1.2-1.4-1.8-3.2-1.6-5.1l0.6-10.7c0.2-3.5-2.1-6.6-5.5-7.5l-10.4-2.7c-1.8-0.5-3.3-1.6-4.3-3.1
		l-5.8-9C77.1,1.2,74.7,0,72.3,0c-0.9,0-1.8,0.2-2.7,0.5l-10,3.9c-0.9,0.3-1.8,0.5-2.7,0.5c-0.9,0-1.8-0.2-2.7-0.5l-10-3.9
		C43.4,0.2,42.5,0,41.6,0c-2.4,0-4.8,1.2-6.2,3.4l-5.8,9c-1,1.6-2.5,2.7-4.3,3.1L15,18.3c-3.4,0.9-5.7,4-5.5,7.5l0.6,10.7
		c0.1,1.8-0.5,3.6-1.6,5.1l-6.8,8.3c-2.2,2.7-2.2,6.6,0,9.3l6.8,8.3c1.2,1.4,1.8,3.2,1.6,5.1L9.5,83.3c-0.2,3.5,2.1,6.6,5.5,7.5
		l10.4,2.7c1.8,0.5,3.3,1.6,4.3,3.1l5.8,9c1.4,2.2,3.7,3.4,6.2,3.4c0.9,0,1.8-0.2,2.7-0.5l10-3.9c0.9-0.3,1.8-0.5,2.7-0.5
		c0.9,0,1.8,0.2,2.7,0.5l10,3.9c0.9,0.3,1.8,0.5,2.7,0.5c2.4,0,4.8-1.2,6.2-3.4l5.8-9c1-1.6,2.5-2.7,4.3-3.1l10.4-2.7
		c3.4-0.9,5.7-4,5.5-7.5l-0.6-10.7c-0.1-1.8,0.5-3.6,1.6-5.1l6.8-8.3C114.4,56.5,114.4,52.6,112.2,49.9z M56.9,96.6
		c-23.3,0-42.1-18.9-42.1-42.1c0-23.3,18.9-42.1,42.1-42.1c23.3,0,42.1,18.9,42.1,42.1C99.1,77.8,80.2,96.6,56.9,96.6z"/>
	<path d="M56.9,16.4c-21,0-38.1,17.1-38.1,38.1c0,21,17.1,38.1,38.1,38.1s38.1-17.1,38.1-38.1C95.1,33.5,78,16.4,56.9,16.4z
		 M50.6,47.5h-3.4l-0.6,3H50l-0.6,4h-3.4l-0.6,3h-3.4l0.6-3h-3.6l-0.6,3h-3.4l0.6-3H32l0.6-4H36l0.6-3h-3.4l0.6-4h3.4l0.6-3h3.4
		l-0.6,3h3.6l0.6-3h3.4l-0.6,3h3.4L50.6,47.5z M77.9,71.5h-23v-6h7v-21h-0.6c-1.1,3-2.1,3.3-3.7,4.7l-5.2-4.6l10.1-9.1h8.5v30h7
		V71.5z"/>
	<polygon points="39.5,50.5 43.1,50.5 43.7,47.5 40.1,47.5"/>
</g>
</svg>
